<svg xmlns="http://www.w3.org/2000/svg" viewBox="0 0 64 64" role="img" aria-label="Homework Tracker Icon">
  <defs>
    <linearGradient id="bg" x1="0" y1="0" x2="1" y2="1">
      <stop offset="0%" stop-color="#0ea5e9" />
      <stop offset="100%" stop-color="#14b8a6" />
    </linearGradient>
  </defs>
  <rect x="4" y="4" width="56" height="56" rx="14" fill="url(#bg)" />
  <path d="M20 18h24a4 4 0 0 1 4 4v26a2 2 0 0 1-2 2H18a2 2 0 0 1-2-2V22a4 4 0 0 1 4-4z" fill="#ffffff" fill-opacity="0.92"/>
  <path d="M24 30h16M24 36h16M24 42h10" stroke="#0f766e" stroke-width="3" stroke-linecap="round"/>
  <circle cx="42" cy="22" r="6" fill="#f59e0b" />
  <path d="m39 22 2 2 4-4" stroke="#fff" stroke-width="2.5" stroke-linecap="round" stroke-linejoin="round"/>
</svg>
